General
Complete name                    : D:\Devil 2010 720p BDRip Xvid AC3-Freebee269\Devil 2010 720p BDRip Xvid AC3-Freebee269.avi
Format                           : AVI
Format/Info                      : Audio Video Interleave
Format profile                   : OpenDML
File size                        : 2.10 GiB
Duration                         : 1h 20mn
Overall bit rate                 : 3 727 Kbps
Writing application              : AVI-Mux GUI 1.17.8.3, Feb 16 201019:42:50

Video
ID                               : 0
Format                           : MPEG-4 Visual
Format profile                   : Advanced Simple@L5
Format settings, BVOP            : Yes
Format settings, QPel            : No
Format settings, GMC             : No warppoints
Format settings, Matrix          : Default (MPEG)
Codec ID                         : XVID
Codec ID/Hint                    : XviD
Duration                         : 1h 20mn
Bit rate                         : 3 274 Kbps
Width                            : 1 280 pixels
Height                           : 528 pixels
Display aspect ratio             : 2.40:1
Frame rate                       : 23.976 fps
Color space                      : YUV
Chroma subsampling               : 4:2:0
Bit depth                        : 8 bits
Scan type                        : Progressive
Compression mode                 : Lossy
Bits/(Pixel*Frame)               : 0.202
Stream size                      : 1.84 GiB (88%)
Writing library                  : XviD 1.2.1 (UTC 2008-12-04)

Audio
ID                               : 1
Format                           : AC-3
Format/Info                      : Audio Coding 3
Mode extension                   : CM (complete main)
Codec ID                         : 2000
Duration                         : 1h 20mn
Bit rate mode                    : Constant
Bit rate                         : 448 Kbps
Channel(s)                       : 6 channels
Channel positions                : Front: L C R, Side: L R, LFE
Sampling rate                    : 48.0 KHz
Bit depth                        : 16 bits
Compression mode                 : Lossy
Stream size                      : 258 MiB (12%)
Alignment                        : Aligned on interleaves
Interleave, duration             : 64 ms (1.53 video frames)
Interleave, preload duration     : 192 ms
Title                            : 00010.track_4352 english

Actors: Chris Messina, Geoffrey Arend
Directors: John Erick Dowdle Drew Dowdle
Language: English, Spanish, French
Subtitle: English, Spanish, French
Rated: PG-13 (Parental Guidance Suggested)
Studio: Universal Pictures
DVD Release Date: December 21, 2010
Run Time: 80 minutes

Sample Included: Yes
Encoder: Freebee269

Trapped in an elevator high above Philadelphia, five people discover that the Devil is among them – and no one can escape their fate. This chilling, supernatural thriller from M. Night Shyamalan (The Sixth Sense, Signs) will keep you on the edge of your seat all the way to a heart-stopping ending with a truly wicked twist. 
 
http://i126.photobucket.com/albums/p102/tebugg/torrent%20files/0fc2577c.png
 
http://i126.photobucket.com/albums/p102/tebugg/torrent%20files/afb7e74e.png
 
http://i126.photobucket.com/albums/p102/tebugg/torrent%20files/55578064.png
 
http://i126.photobucket.com/albums/p102/tebugg/torrent%20files/4b37f88c.png
